<svg xmlns="http://www.w3.org/2000/svg" xmlns:xlink="http://www.w3.org/1999/xlink" width="64" zoomAndPan="magnify" viewBox="0 0 48 48" height="64" preserveAspectRatio="xMidYMid meet" version="1.0"><defs><clipPath id="d849feef18"><path d="M 3.003906 33 L 11 33 L 11 45.46875 L 3.003906 45.46875 Z M 3.003906 33 " clip-rule="nonzero"/></clipPath><clipPath id="70344a63a8"><path d="M 14 31 L 22 31 L 22 45.46875 L 14 45.46875 Z M 14 31 " clip-rule="nonzero"/></clipPath><clipPath id="190f0780df"><path d="M 25 27 L 34 27 L 34 45.46875 L 25 45.46875 Z M 25 27 " clip-rule="nonzero"/></clipPath><clipPath id="9bd36a46fb"><path d="M 37 20 L 44.882812 20 L 44.882812 45.46875 L 37 45.46875 Z M 37 20 " clip-rule="nonzero"/></clipPath><clipPath id="bb602272b9"><path d="M 3.003906 1.386719 L 44.882812 1.386719 L 44.882812 30 L 3.003906 30 Z M 3.003906 1.386719 " clip-rule="nonzero"/></clipPath></defs><g clip-path="url(#d849feef18)"><path fill="#704c18" d="M 3.003906 33.433594 L 10.382812 33.433594 L 10.382812 45.46875 L 3.003906 45.46875 Z M 3.003906 33.433594 " fill-opacity="1" fill-rule="nonzero"/></g><g clip-path="url(#70344a63a8)"><path fill="#704c18" d="M 14.449219 45.46875 L 14.449219 31.777344 L 21.894531 31.777344 L 21.894531 45.46875 Z M 14.449219 45.46875 " fill-opacity="1" fill-rule="nonzero"/></g><g clip-path="url(#190f0780df)"><path fill="#704c18" d="M 25.898438 27.714844 L 33.578125 27.714844 L 33.578125 45.46875 L 25.898438 45.46875 Z M 25.898438 27.714844 " fill-opacity="1" fill-rule="nonzero"/></g><g clip-path="url(#9bd36a46fb)"><path fill="#704c18" d="M 37.644531 20.644531 L 44.875 20.644531 L 44.875 45.46875 L 37.644531 45.46875 Z M 37.644531 20.644531 " fill-opacity="1" fill-rule="nonzero"/></g><g clip-path="url(#bb602272b9)"><path fill="#704c18" d="M 3.003906 29.308594 C 3.003906 29.308594 22.582031 26.667969 35.988281 8.910156 L 31.621094 6.054688 L 44.878906 1.390625 L 44.878906 15.347656 L 41.261719 12.222656 C 41.261719 12.222656 24.84375 30.75 3.003906 29.308594 Z M 3.003906 29.308594 " fill-opacity="1" fill-rule="nonzero"/></g></svg>