<svg xmlns="http://www.w3.org/2000/svg" xmlns:xlink="http://www.w3.org/1999/xlink" width="64" zoomAndPan="magnify" viewBox="0 0 48 48" height="64" preserveAspectRatio="xMidYMid meet" version="1.0"><defs><clipPath id="8be8825207"><path d="M 3.070312 16 L 23 16 L 23 44 L 3.070312 44 Z M 3.070312 16 " clip-rule="nonzero"/></clipPath><clipPath id="0c2b5d477d"><path d="M 6 3.035156 L 15 3.035156 L 15 14 L 6 14 Z M 6 3.035156 " clip-rule="nonzero"/></clipPath><clipPath id="ae5338b4fe"><path d="M 1.25 8 L 12 8 L 12 17 L 1.25 17 Z M 1.25 8 " clip-rule="nonzero"/></clipPath><clipPath id="8d784f6254"><path d="M 22.203125 21.457031 L 46.800781 21.457031 L 46.800781 44.003906 L 22.203125 44.003906 Z M 22.203125 21.457031 " clip-rule="nonzero"/></clipPath></defs><path fill="#704c18" d="M 14.980469 8.769531 C 17.320312 7.636719 19.933594 7 22.703125 7 C 32.558594 7 40.578125 15.085938 40.578125 25.042969 C 40.578125 25.253906 40.578125 25.453125 40.558594 25.65625 L 41.46875 25.65625 C 41.488281 25.453125 41.488281 25.253906 41.488281 25.042969 C 41.488281 14.585938 33.0625 6.085938 22.703125 6.085938 C 19.699219 6.085938 16.84375 6.804688 14.332031 8.078125 L 14.679688 8.433594 L 14.832031 8.585938 C 14.886719 8.644531 14.945312 8.707031 14.980469 8.769531 " fill-opacity="1" fill-rule="nonzero"/><g clip-path="url(#8be8825207)"><path fill="#704c18" d="M 4.828125 25.042969 C 4.828125 22.148438 5.503906 19.410156 6.714844 16.980469 C 6.667969 16.953125 6.632812 16.914062 6.59375 16.878906 L 6.386719 16.664062 L 6.03125 16.3125 C 4.683594 18.929688 3.917969 21.902344 3.917969 25.042969 C 3.917969 35.390625 12.1875 43.839844 22.414062 43.996094 C 22.355469 43.859375 22.332031 43.703125 22.332031 43.550781 L 22.332031 43.082031 C 12.65625 42.882812 4.828125 34.863281 4.828125 25.042969 " fill-opacity="1" fill-rule="nonzero"/></g><path fill="#704c18" d="M 22.332031 37.414062 C 15.742188 37.214844 10.449219 31.734375 10.449219 25.042969 C 10.449219 22.070312 11.488281 19.347656 13.222656 17.207031 L 12.582031 16.5625 C 10.675781 18.867188 9.539062 21.824219 9.539062 25.042969 C 9.539062 32.246094 15.242188 38.128906 22.332031 38.328125 L 22.332031 37.414062 " fill-opacity="1" fill-rule="nonzero"/><path fill="#704c18" d="M 34.292969 21.023438 L 35.257812 21.023438 C 33.5625 15.65625 28.582031 11.75 22.703125 11.75 C 19.605469 11.75 16.765625 12.832031 14.523438 14.628906 L 15.179688 15.289062 C 17.257812 13.644531 19.867188 12.664062 22.703125 12.664062 C 28.066406 12.664062 32.644531 16.160156 34.292969 21.023438 " fill-opacity="1" fill-rule="nonzero"/><path fill="#704c18" d="M 21.335938 32.90625 L 21.335938 31.976562 C 18.132812 31.324219 15.703125 28.464844 15.703125 25.042969 C 15.703125 23.535156 16.171875 22.148438 16.972656 20.992188 L 16.324219 20.335938 C 15.359375 21.652344 14.792969 23.277344 14.792969 25.042969 C 14.792969 28.976562 17.628906 32.246094 21.335938 32.90625 " fill-opacity="1" fill-rule="nonzero"/><path fill="#704c18" d="M 28.78125 21.550781 C 28.960938 21.304688 29.234375 21.132812 29.542969 21.058594 C 28.1875 18.671875 25.625 17.0625 22.703125 17.0625 C 21.070312 17.0625 19.550781 17.566406 18.285156 18.425781 L 18.941406 19.09375 C 20.03125 18.390625 21.328125 17.976562 22.703125 17.976562 C 25.308594 17.976562 27.578125 19.421875 28.78125 21.550781 " fill-opacity="1" fill-rule="nonzero"/><path fill="#704c18" d="M 22.382812 25.160156 C 22.46875 25.25 22.585938 25.292969 22.703125 25.292969 C 22.824219 25.292969 22.9375 25.25 23.027344 25.160156 C 23.207031 24.984375 23.207031 24.695312 23.027344 24.515625 L 10.195312 11.558594 L 4.464844 5.777344 C 4.289062 5.59375 4 5.59375 3.824219 5.773438 C 3.640625 5.953125 3.640625 6.242188 3.820312 6.417969 L 9.542969 12.199219 L 22.382812 25.160156 " fill-opacity="1" fill-rule="nonzero"/><g clip-path="url(#0c2b5d477d)"><path fill="#704c18" d="M 12.703125 12.792969 L 13.472656 13.570312 L 14.3125 9.648438 C 14.339844 9.496094 14.296875 9.335938 14.183594 9.226562 L 13.824219 8.867188 L 8.328125 3.3125 C 8.210938 3.195312 8.035156 3.148438 7.871094 3.195312 C 7.714844 3.25 7.585938 3.378906 7.5625 3.542969 L 6.84375 6.886719 L 7.609375 7.65625 L 8.269531 4.554688 L 13.027344 9.355469 L 13.363281 9.695312 L 12.703125 12.792969 " fill-opacity="1" fill-rule="nonzero"/></g><g clip-path="url(#ae5338b4fe)"><path fill="#704c18" d="M 7.5625 16.367188 C 7.597656 16.367188 7.625 16.367188 7.664062 16.359375 L 11.542969 15.507812 L 10.78125 14.742188 L 7.707031 15.410156 L 7.324219 15.019531 L 2.617188 10.261719 L 5.683594 9.59375 L 4.921875 8.828125 L 1.605469 9.546875 C 1.449219 9.582031 1.3125 9.707031 1.265625 9.871094 C 1.222656 10.023438 1.265625 10.199219 1.386719 10.316406 L 6.839844 15.824219 L 7.242188 16.230469 C 7.324219 16.324219 7.445312 16.367188 7.5625 16.367188 " fill-opacity="1" fill-rule="nonzero"/></g><g clip-path="url(#8d784f6254)"><path fill="#704c18" d="M 38.742188 26.570312 L 30.308594 26.570312 L 30.308594 22.847656 L 38.742188 22.847656 Z M 45.890625 34.988281 L 37.582031 34.988281 L 37.582031 35.902344 L 44.894531 35.902344 L 44.894531 43.089844 L 24.15625 43.089844 L 24.15625 35.902344 L 31.464844 35.902344 L 31.464844 34.988281 L 23.15625 34.988281 L 23.15625 27.484375 L 29.84375 27.484375 C 29.847656 27.484375 29.851562 27.484375 29.855469 27.484375 L 39.195312 27.484375 C 39.199219 27.484375 39.203125 27.484375 39.207031 27.484375 L 45.890625 27.484375 Z M 46.34375 26.570312 L 39.652344 26.570312 L 39.652344 22.390625 C 39.652344 22.136719 39.445312 21.933594 39.195312 21.933594 L 29.855469 21.933594 C 29.601562 21.933594 29.398438 22.136719 29.398438 22.390625 L 29.398438 26.570312 L 22.703125 26.570312 C 22.460938 26.570312 22.246094 26.78125 22.246094 27.027344 L 22.246094 35.445312 C 22.246094 35.695312 22.460938 35.902344 22.703125 35.902344 L 23.246094 35.902344 L 23.246094 43.546875 C 23.246094 43.800781 23.449219 44.003906 23.703125 44.003906 L 45.347656 44.003906 C 45.601562 44.003906 45.804688 43.800781 45.804688 43.546875 L 45.804688 35.902344 L 46.34375 35.902344 C 46.597656 35.902344 46.800781 35.695312 46.800781 35.445312 L 46.800781 27.027344 C 46.800781 26.78125 46.597656 26.570312 46.34375 26.570312 " fill-opacity="1" fill-rule="nonzero"/></g><path fill="#704c18" d="M 34.875 37.015625 L 34.175781 37.015625 C 33.6875 37.015625 33.292969 36.621094 33.292969 36.132812 L 33.292969 33.726562 L 35.757812 33.726562 L 35.757812 36.132812 C 35.757812 36.621094 35.363281 37.015625 34.875 37.015625 Z M 36.214844 32.8125 L 32.835938 32.8125 C 32.582031 32.8125 32.382812 33.019531 32.382812 33.269531 L 32.382812 36.132812 C 32.382812 37.125 33.183594 37.929688 34.175781 37.929688 L 34.875 37.929688 C 35.863281 37.929688 36.667969 37.125 36.667969 36.132812 L 36.667969 33.269531 C 36.667969 33.019531 36.464844 32.8125 36.214844 32.8125 " fill-opacity="1" fill-rule="nonzero"/></svg>