<svg xmlns="http://www.w3.org/2000/svg" xmlns:xlink="http://www.w3.org/1999/xlink" width="64" zoomAndPan="magnify" viewBox="0 0 48 48" height="64" preserveAspectRatio="xMidYMid meet" version="1.0"><defs><clipPath id="1773b216c8"><path d="M 1.488281 1.503906 L 46 1.503906 L 46 45.585938 L 1.488281 45.585938 Z M 1.488281 1.503906 " clip-rule="nonzero"/></clipPath></defs><g clip-path="url(#1773b216c8)"><path fill="#704c18" d="M 43.550781 18.484375 L 38.644531 13.566406 C 39.222656 13.183594 41.292969 12.195312 43.101562 14.015625 C 44.3125 15.230469 44.457031 17.105469 43.550781 18.484375 Z M 23.09375 39.128906 L 18.085938 34.101562 L 37.59375 14.519531 L 42.601562 19.546875 Z M 17.667969 35.703125 L 21.5 39.546875 L 17.347656 39.867188 Z M 34.316406 44.164062 L 3.15625 44.164062 L 3.15625 2.929688 L 34.316406 2.929688 L 34.316406 15.796875 L 31.554688 18.5625 L 21.570312 18.5625 L 21.570312 19.988281 L 30.140625 19.988281 L 24.476562 25.667969 L 5.992188 25.667969 L 5.992188 27.101562 L 23.058594 27.101562 L 17.390625 32.785156 L 5.992188 32.785156 L 5.992188 34.207031 L 16.367188 34.207031 L 15.816406 41.410156 L 23.414062 40.824219 L 34.324219 29.871094 L 34.324219 44.164062 Z M 44.105469 13.007812 C 41.351562 10.25 38.035156 12.074219 37.09375 13.007812 L 35.730469 14.371094 L 35.730469 1.503906 L 1.742188 1.503906 L 1.742188 45.585938 L 35.730469 45.585938 L 35.730469 28.449219 L 44.09375 20.046875 C 46.035156 18.105469 46.035156 14.953125 44.101562 13.007812 L 44.105469 13.007812 " fill-opacity="1" fill-rule="nonzero"/></g><path fill="#704c18" d="M 22.09375 36.109375 L 39.59375 18.539062 L 38.59375 17.53125 L 21.09375 35.101562 L 22.09375 36.109375 " fill-opacity="1" fill-rule="nonzero"/><path fill="#704c18" d="M 17.289062 18.5625 L 7.40625 18.5625 L 7.40625 7.1875 L 17.289062 7.1875 Z M 18.703125 5.773438 L 5.992188 5.773438 L 5.992188 19.988281 L 18.714844 19.988281 L 18.714844 5.773438 L 18.703125 5.773438 " fill-opacity="1" fill-rule="nonzero"/><path fill="#704c18" d="M 12.347656 10.023438 C 13.132812 10.023438 13.777344 10.664062 13.777344 11.464844 C 13.777344 12.253906 13.140625 12.902344 12.347656 12.902344 C 11.5625 12.902344 10.917969 12.261719 10.917969 11.464844 C 10.917969 10.664062 11.566406 10.023438 12.347656 10.023438 Z M 12.347656 15.011719 C 13.910156 15.011719 15.179688 16.289062 15.179688 17.863281 L 16.589844 17.863281 C 16.589844 16.039062 15.453125 14.484375 13.847656 13.878906 C 14.648438 13.375 15.1875 12.480469 15.1875 11.464844 C 15.1875 9.886719 13.910156 8.609375 12.339844 8.609375 C 10.773438 8.609375 9.492188 9.894531 9.492188 11.464844 C 9.492188 12.480469 10.027344 13.375 10.832031 13.878906 C 9.226562 14.492188 8.089844 16.039062 8.089844 17.863281 L 9.503906 17.863281 C 9.519531 16.289062 10.789062 15.011719 12.347656 15.011719 " fill-opacity="1" fill-rule="nonzero"/><path fill="#704c18" d="M 21.570312 5.773438 L 31.484375 5.773438 L 31.484375 7.195312 L 21.570312 7.195312 L 21.570312 5.773438 " fill-opacity="1" fill-rule="nonzero"/><path fill="#704c18" d="M 21.570312 12.167969 L 31.484375 12.167969 L 31.484375 13.59375 L 21.570312 13.59375 L 21.570312 12.167969 " fill-opacity="1" fill-rule="nonzero"/><path fill="#704c18" d="M 5.992188 39.898438 L 7.40625 39.898438 L 7.40625 41.324219 L 5.992188 41.324219 L 5.992188 39.898438 " fill-opacity="1" fill-rule="nonzero"/><path fill="#704c18" d="M 8.820312 39.898438 L 10.234375 39.898438 L 10.234375 41.324219 L 8.820312 41.324219 L 8.820312 39.898438 " fill-opacity="1" fill-rule="nonzero"/><path fill="#704c18" d="M 11.660156 39.898438 L 13.074219 39.898438 L 13.074219 41.324219 L 11.660156 41.324219 L 11.660156 39.898438 " fill-opacity="1" fill-rule="nonzero"/></svg>