<svg xmlns="http://www.w3.org/2000/svg" xmlns:xlink="http://www.w3.org/1999/xlink" width="64" zoomAndPan="magnify" viewBox="0 0 48 48" height="64" preserveAspectRatio="xMidYMid meet" version="1.0"><defs><clipPath id="e03ef30034"><path d="M 31.078125 39.0625 L 45.363281 39.0625 L 45.363281 43.839844 L 31.078125 43.839844 Z M 31.078125 39.0625 " clip-rule="nonzero"/></clipPath><clipPath id="973f700675"><path d="M 13 30 L 27 30 L 27 47.019531 L 13 47.019531 Z M 13 30 " clip-rule="nonzero"/></clipPath><clipPath id="95f1e62f9e"><path d="M 2.871094 30 L 13 30 L 13 47 L 2.871094 47 Z M 2.871094 30 " clip-rule="nonzero"/></clipPath></defs><path fill="#704c18" d="M 40.847656 32.699219 L 35.652344 32.699219 L 36.363281 34.289062 L 40.132812 34.289062 L 40.847656 32.699219 " fill-opacity="1" fill-rule="nonzero"/><g clip-path="url(#e03ef30034)"><path fill="#704c18" d="M 41.460938 39.0625 L 31.136719 39.0625 L 31.738281 43.839844 L 44.761719 43.839844 L 45.363281 39.0625 L 41.460938 39.0625 " fill-opacity="1" fill-rule="nonzero"/></g><path fill="#704c18" d="M 38.25 4.851562 C 38.402344 4.851562 42.046875 4.886719 43.023438 7.785156 C 43.9375 10.507812 42.199219 13.140625 42.125 13.25 L 40.792969 12.367188 C 40.804688 12.347656 42.164062 10.265625 41.5 8.289062 C 40.890625 6.480469 38.273438 6.445312 38.246094 6.445312 Z M 35.84375 22.355469 C 35.84375 25.550781 34.414062 27.371094 33.609375 28.144531 L 34.9375 31.109375 L 41.5625 31.109375 L 42.632812 28.722656 L 35.84375 28.722656 L 35.84375 27.128906 L 42.042969 27.128906 C 41.347656 26.125 40.65625 24.582031 40.65625 22.355469 C 40.65625 19.882812 41.65625 17.804688 42.625 15.789062 C 43.628906 13.703125 44.667969 11.542969 44.667969 8.832031 C 44.667969 3.984375 40.644531 3.261719 38.25 3.261719 C 35.851562 3.261719 31.832031 3.984375 31.832031 8.832031 C 31.832031 11.542969 32.867188 13.703125 33.875 15.789062 C 34.84375 17.804688 35.84375 19.882812 35.84375 22.355469 " fill-opacity="1" fill-rule="nonzero"/><path fill="#704c18" d="M 39.855469 37.472656 L 39.855469 35.882812 L 36.644531 35.882812 L 36.644531 37.472656 L 39.855469 37.472656 " fill-opacity="1" fill-rule="nonzero"/><g clip-path="url(#973f700675)"><path fill="#704c18" d="M 21.441406 30.3125 C 20.257812 32.667969 17.808594 34.289062 14.984375 34.289062 C 14.445312 34.289062 13.917969 34.226562 13.414062 34.117188 L 14.136719 47.019531 C 14.152344 47.019531 14.164062 47.019531 14.179688 47.019531 C 22.476562 47.019531 26.019531 44.417969 26.941406 43.589844 L 23.964844 30.3125 L 21.441406 30.3125 " fill-opacity="1" fill-rule="nonzero"/></g><path fill="#704c18" d="M 14.984375 23.949219 C 16.753906 23.949219 18.191406 25.371094 18.191406 27.128906 C 18.191406 28.890625 16.753906 30.3125 14.984375 30.3125 C 13.210938 30.3125 11.773438 28.890625 11.773438 27.128906 C 11.773438 25.371094 13.210938 23.949219 14.984375 23.949219 Z M 14.984375 32.699219 C 18.078125 32.699219 20.597656 30.199219 20.597656 27.128906 C 20.597656 24.058594 18.078125 21.5625 14.984375 21.5625 C 11.886719 21.5625 9.367188 24.058594 9.367188 27.128906 C 9.367188 30.199219 11.886719 32.699219 14.984375 32.699219 " fill-opacity="1" fill-rule="nonzero"/><path fill="#704c18" d="M 23.808594 28.722656 L 23.808594 27.128906 L 22.203125 27.128906 C 22.203125 27.675781 22.136719 28.207031 22.019531 28.722656 L 23.808594 28.722656 " fill-opacity="1" fill-rule="nonzero"/><path fill="#704c18" d="M 6 2.738281 L 6.707031 2.507812 C 7.015625 2.402344 14.324219 0.0351562 18.605469 2.582031 C 19.472656 3.09375 20.003906 3.628906 20.226562 4.191406 C 22.042969 4.109375 24.03125 3.933594 26.003906 3.597656 C 24.339844 2.507812 20.757812 0.875 14.179688 0.875 C 6.710938 0.875 4.039062 2.964844 3.210938 3.910156 C 3.839844 4.394531 5.046875 5.191406 6.765625 5.765625 L 6 2.738281 " fill-opacity="1" fill-rule="nonzero"/><g clip-path="url(#95f1e62f9e)"><path fill="#704c18" d="M 11.78125 33.539062 C 10.371094 32.84375 9.226562 31.707031 8.523438 30.3125 L 5.996094 30.3125 L 2.996094 43.714844 C 3.445312 44.363281 5.527344 46.664062 12.527344 46.984375 L 11.773438 33.539062 L 11.78125 33.539062 " fill-opacity="1" fill-rule="nonzero"/></g><path fill="#704c18" d="M 23.808594 23.949219 L 21.441406 23.949219 C 21.691406 24.449219 21.886719 24.980469 22.019531 25.539062 L 23.808594 25.539062 L 23.808594 23.949219 " fill-opacity="1" fill-rule="nonzero"/><path fill="#704c18" d="M 11.773438 6.421875 L 11.773438 3.972656 L 12.65625 4.0625 C 12.699219 4.066406 15.015625 4.289062 18.234375 4.246094 C 18.109375 4.152344 17.964844 4.054688 17.777344 3.941406 C 14.832031 2.191406 9.78125 3.308594 7.925781 3.808594 L 8.53125 6.21875 C 9.28125 6.355469 10.089844 6.445312 10.972656 6.445312 C 11.242188 6.445312 11.503906 6.429688 11.773438 6.421875 " fill-opacity="1" fill-rule="nonzero"/><path fill="#704c18" d="M 26.835938 5.066406 C 21.242188 6.109375 15.53125 5.867188 13.378906 5.71875 L 13.378906 20.152344 C 13.894531 20.039062 14.429688 19.96875 14.984375 19.96875 C 17.113281 19.96875 19.027344 20.894531 20.347656 22.355469 L 23.929688 22.355469 L 26.835938 5.066406 " fill-opacity="1" fill-rule="nonzero"/><path fill="#704c18" d="M 11.773438 20.726562 L 11.773438 8.015625 C 11.503906 8.019531 11.242188 8.035156 10.972656 8.035156 C 7.449219 8.035156 4.832031 6.859375 3.265625 5.886719 L 6.035156 22.355469 L 9.613281 22.355469 C 10.222656 21.683594 10.953125 21.132812 11.773438 20.726562 " fill-opacity="1" fill-rule="nonzero"/><path fill="#704c18" d="M 8.523438 23.949219 L 6.15625 23.949219 L 6.15625 25.539062 L 7.945312 25.539062 C 8.074219 24.980469 8.269531 24.449219 8.523438 23.949219 " fill-opacity="1" fill-rule="nonzero"/><path fill="#704c18" d="M 6.15625 28.722656 L 7.945312 28.722656 C 7.828125 28.207031 7.761719 27.675781 7.761719 27.128906 L 6.15625 27.128906 L 6.15625 28.722656 " fill-opacity="1" fill-rule="nonzero"/></svg>